<svg xmlns="http://www.w3.org/2000/svg" version="1.2" viewBox="0 0 591 591">
  <style>
    .s0{fill:#f3d85f}
  </style>
  <g id="Background">
    <path id="Path 0" d="m274 .6-13.5 1.5a294.1 294.1 0 0 0-230 162.4 345 345 0 0 0-12 27 349.5 349.5 0 0 0-13 46A336.7 336.7 0 0 0 0 294.7c0 8.7.5 20.7 1 26.8A327.5 327.5 0 0 0 9.1 369a408 408 0 0 0 6.6 22 378 378 0 0 0 8.9 23c3 6.9 8.2 17.4 11.5 23.5a316.4 316.4 0 0 0 59.8 75.8c5.3 4.9 14.1 12.3 19.6 16.5a322.5 322.5 0 0 0 45 28.4 347.8 347.8 0 0 0 50.5 20.3 317.6 317.6 0 0 0 68.2 11.6c10.2.6 21.6.5 32.3-.1 9.1-.5 21-1.7 26.5-2.5s15.1-2.6 21.3-3.9a334 334 0 0 0 45-13.7 372 372 0 0 0 44.7-22.3 351.6 351.6 0 0 0 35.5-25.5 366 366 0 0 0 19.6-18 366 366 0 0 0 18-19.6c4.1-4.9 10.1-12.8 13.5-17.5a337.1 337.1 0 0 0 34.7-64c2.5-6.3 6.2-17.1 8.2-24a348.6 348.6 0 0 0 10-49.5 344 344 0 0 0 1.5-34c0-12.6-.6-26.4-1.6-34.5-.8-7.4-2.7-18.9-4-25.5a428 428 0 0 0-4.9-20.5 327.5 327.5 0 0 0-15.4-42c-2.8-6.3-7.7-16-10.8-21.5a359 359 0 0 0-27.9-41.5A388.2 388.2 0 0 0 479 64a398.1 398.1 0 0 0-22-15.9 358.3 358.3 0 0 0-24.5-14.3c-7.1-3.7-17.7-8.7-23.5-11.1A334.3 334.3 0 0 0 363.5 8a274.6 274.6 0 0 0-63-7.5 483 483 0 0 0-26.5.1z" class="s0"/>
    <path id="Path 1" fill="#000" fill-rule="evenodd" d="M301 11.5c9.6.3 23.1 1.2 30 2.1 6.9.8 17.7 2.7 24 4a364 364 0 0 1 20 5A287.7 287.7 0 0 1 516.3 117a300 300 0 0 1 33.7 53.5c4.9 9.9 10.7 23.4 13 30a322.2 322.2 0 0 1 13 52c1.4 8.9 2.3 21.4 2.7 34.5.4 12.9.1 25.3-.6 33.5-.7 7.1-2.3 19.1-3.7 26.5-1.4 7.4-3.9 18.4-5.5 24.5-1.7 6.1-4.9 15.9-7.1 22a341 341 0 0 1-11.8 27 316 316 0 0 1-50 71.8 83.4 83.4 0 0 1-11 10.7c-.7 0-1-31.3-1-92 0-72.9.3-92 1.3-92 .6 0 11.8 2.7 24.7 6l25.3 6.5c1.4.4 1.9-.5 2.8-4.8.6-2.8.9-5.3.7-5.4L432 292.9c-60.8-15.5-110.7-28.4-111-28.5a.5.5 0 0 1 0-.8c.3-.3 7.5-2.4 16-4.6l15.8-4.4c.1 0-.4-2.4-1.1-5.1-1.2-4-1.8-4.9-3.3-4.7-1.1.2-21.3 5.5-44.9 11.9L216 280.1l-46.3 12.4c-1.6.5-1.7-1.5-1.2-68l13-2.2c7.2-1.2 18.3-2.6 24.7-3.2a331.4 331.4 0 0 1 56.8.4c7.4.7 24.1 3.2 37 5.4a552 552 0 0 0 37.5 5.3c10.7.9 17.4.8 28.5-.1a242.8 242.8 0 0 0 57.5-11.6l.2-76.8c.2-42.2 0-76.7-.5-76.7l-12.5 2.5c-6.4 1.4-17.4 3.2-24.5 4a281.7 281.7 0 0 1-57 0c-6.4-.9-18.7-2.9-27.2-4.5s-21.4-3.9-28.5-5a418 418 0 0 0-30-3.1c-13-.9-21.3-.9-35 0-9.9.6-22.3 1.8-27.5 2.6a159 159 0 0 1-24 1.5v233l-3.8 1a11670.5 11670.5 0 0 0-101 27.3c-.1.1.2 2.3.8 4.9.6 3.2 1.5 4.8 2.5 4.8.8 0 9.9-2.3 20.2-5l20.5-5.5c1.7-.5 1.8 4.2 1.8 87 0 48.1-.3 87.5-.8 87.5-.4 0-4.1-3.5-8.3-7.7a356.6 356.6 0 0 1-15-16.8c-4-4.9-11.3-15.1-16.2-22.5a328.5 328.5 0 0 1-29.2-57.5 301 301 0 0 1-7.2-22.5 372 372 0 0 1-5.8-26.5c-1.3-7.7-2.9-20.5-3.6-28.5-.6-8.3-.9-21.1-.6-30 .4-8.5 1.3-20.9 2.2-27.5a401 401 0 0 1 4.1-24 328.3 328.3 0 0 1 18.6-56A331 331 0 0 1 60 136a339 339 0 0 1 14.1-19A325 325 0 0 1 117 74a355.5 355.5 0 0 1 41.7-27.9A321.9 321.9 0 0 1 201 27.3a355 355 0 0 1 24-7.3c6.3-1.6 17.1-3.8 24-5 6.9-1.1 17.4-2.4 23.5-2.9 6.1-.5 18.9-.8 28.5-.6zm-3 71c9.9.2 17.3 1 23.5 2.5a65.3 65.3 0 0 1 13.9 4.8c2.7 1.5 7 4.5 9.5 6.8 2.7 2.4 6.3 7.2 8.6 11.5 3.8 7.2 4 7.7 4.3 18.9a66.6 66.6 0 0 1-3.7 29.4c-.9 2.1-2.4 4.3-3.4 4.7-.9.5-3.5.9-5.7.9s-4 .3-4 .8c.1.4 1.4 2.3 3.1 4.2 1.6 1.9 2.9 4.5 2.9 5.8 0 1.2-.6 2.5-1.3 2.9-.6.4-5.9 2.3-11.6 4.3-8 2.7-10.9 4.2-12.5 6.3-1.7 2.3-2.2 4.8-2.6 13.5-.5 10.5-.5 10.7-3 11-1.6.2-2.9-.4-3.6-1.5-1-1.7-1.1-1.7-1.7 0-.4 1-1.7 1.7-3.2 1.7-1.4 0-2.9-.8-3.5-1.7-1-1.7-1-1.7-2 0-.6.9-2.1 1.7-3.5 1.7s-2.5-.6-2.5-1.2c0-1-.2-1-1.2 0-.7.6-2.2 1.2-3.5 1.2-1.3 0-2.7-.8-3.3-1.7-1-1.7-1-1.7-2 0-.6.9-2.1 1.7-3.5 1.7-1.5 0-2.7-.7-3.1-1.7-.5-1.7-.6-1.7-1.5 0-.5.9-1.8 1.7-2.9 1.7-1.1 0-2.3-.6-2.7-1.2-.4-.7-.7-4.9-.8-9.3-.1-4.4-.6-9.7-1.3-11.7-.9-3-2.1-4.2-5.5-5.7a90 90 0 0 0-10.2-3.7c-3.3-.9-7.2-2.3-8.8-3-1.5-.8-2.7-2.2-2.7-3.1-.1-1 1.3-3.6 3-5.8 1.7-2.2 3.1-4.3 3-4.7 0-.5-2-.8-4.5-.8-2.9 0-5.1-.6-6.3-1.7-1-1-2.8-5.8-4-10.8a76.6 76.6 0 0 1-.2-34.7c1.1-3.5 3.5-8.5 5.4-11.3A48.5 48.5 0 0 1 254 90.3c1.9-1.1 5.7-2.8 8.5-3.7 2.7-.8 8.6-2.2 13-3.1 5.6-1 12.3-1.3 22.5-1zm20.6 226.6 14.8 31.9a766.8 766.8 0 0 1 14.6 32.3c0 .4-2.3.7-5 .7-5 0-5 0-9-9h-31l-2.3 4.5c-2.2 4.5-2.2 4.5-7.5 4.5-2.8 0-5-.3-4.8-.7L301 346l14.8-31.9c1.4-2.9 2.7-5.2 2.8-5zm-73.6.9h10v55h29v9h-39zm-124.2 93.5c.5.6 9.6 14.3 20.2 30.5s19.7 30 20.4 30.7c.8.9 6-6.4 21.1-29.4 11-16.8 20.3-30.7 20.7-30.9.5-.2.8 19.2.8 86.6h-13l-.5-47.4-14 22.6a311 311 0 0 1-14.5 22.4c-.3-.2-6.6-10-14-21.9a174 174 0 0 0-14.3-21.2c-.4.3-.7 10.6-.7 45.5h-13v-44.2c0-25.2.3-43.9.8-43.3zm136.3 3c.9 2.2 9.8 21.8 19.9 43.5l18.6 40.3c.2.4-2.9.7-14.1.6l-6-13-41 .1-5.5 13h-7c-3.9 0-7-.3-6.9-.6a5403.1 5403.1 0 0 1 39.7-86.9c.3-.5 1.3.8 2.3 3zm76.4-2.8c2.7.3 7 1.4 9.5 2.5 2.5 1 5.6 2.9 6.8 4.1a20.7 20.7 0 0 1 5.2 8c0 .1-2 1.7-9 6.7l-3.3-3.4a17.3 17.3 0 0 0-15.2-5c-1.7.3-4.2 1.3-5.8 2a10 10 0 0 0-4 4.4c-.7 1.6-1.4 3.8-1.5 5-.1 1.1.9 3.2 2.2 4.8 1.4 1.6 6.7 4.6 13.2 7.4 6 2.6 13.4 6.4 16.3 8.5 3.9 2.7 6.3 5.4 8.4 9.3 2.5 4.7 2.8 6.3 2.4 11-.2 3-1.2 7-2.1 8.8-.9 1.7-3.3 4.8-5.4 6.7-2 2-6.2 4.5-9.2 5.6-4.6 1.7-7.2 2-15.5 1.7-8.3-.3-10.9-.9-15-3a36 36 0 0 1-8.8-6.7c-2-2.2-3.7-4.7-3.7-5.3 0-.7 2.2-2.8 9.5-7.7l3.5 3.4c1.9 1.9 5.2 4.1 7.2 5 2.1.8 6.4 1.5 9.5 1.5 4 0 7.2-.7 10.2-2.3 3.2-1.6 4.9-3.2 5.9-5.7 1.1-2.9 1.1-4 0-6.4-.7-1.6-2.7-4-4.3-5.4-1.7-1.4-8.4-5.1-15-8.2-6.6-3.1-13.6-7-15.5-8.7a25.2 25.2 0 0 1-5.3-6.6c-.9-2.1-1.7-5.9-1.7-8.7 0-2.7.6-6.5 1.3-8.2.8-1.8 2.5-4.7 3.9-6.3a24 24 0 0 1 6.9-5.2 38 38 0 0 1 8.9-3.2c2.5-.5 6.7-.7 9.5-.4zm101.7.3c.7 0 9.9 19.2 20.5 42.8 10.6 23.5 19.3 43 19.3 43.5 0 .4-3 .7-13.5.8L456 478h-42l-5.5 13H394l20-43.2 20-43.5c0-.2.5-.3 1.2-.3zm-64.2 1h13v86h-13z"/>
    <path id="Path 2" d="M271.9 138.2c-1.3.5-3.7 2.1-5.3 3.6A36.3 36.3 0 0 0 258 161c0 3.4.5 5 2.2 6.7 1.3 1.2 3.5 2.6 5.1 3.2 2.1.9 3.6.7 7-.7 2.3-1 5.4-3.4 6.8-5.3a28.5 28.5 0 0 0 6.5-13.6 11 11 0 0 0-.9-6.8c-.8-1.6-2.1-3.5-2.8-4.2-.8-.7-2.8-1.6-4.5-2.1a8.6 8.6 0 0 0-5.5 0zm41-.4c-1.2.2-3.4 1.7-5 3.3-1.6 1.6-3 3.9-3.1 5.2a23.4 23.4 0 0 0 2.7 12.7 33 33 0 0 0 6.4 8.3c2.2 2 5.1 3.8 6.4 3.8 1.2.1 3.1 0 4.2-.1s3-1 4.3-1.9c1.3-.9 2.8-3.2 3.4-5.1.8-2.8.7-4.6-.6-8.5-.9-2.7-2.8-6.9-4.1-9.2a21.8 21.8 0 0 0-5.2-6.1 15.5 15.5 0 0 0-5-2.3c-1.3-.2-3.2-.3-4.4-.1zm-21.8 31.9a27.9 27.9 0 0 0-4.6 15.3c.4 1.4 1 1.8 2.3 1.3.9-.4 3.7-.7 6.2-.7 2.5.1 5.4.3 6.5.5 1.8.4 2-.1 1.8-4.6-.1-2.8-1.2-7-2.5-9.5-1.7-3.4-3-4.6-4.9-4.8-1.9-.2-3.2.5-4.8 2.5zm21.2 174.1c-2.9 6.4-5.1 11.8-5 11.9.1.2 5.2.2 11.4 0l11.1-.2c-8-17.7-10.8-23-11.3-23.2-.6-.1-3.4 5-6.2 11.5zm-58 90.9c-.6 1-4.1 8.4-7.7 16.6-3.6 8.1-6.6 14.9-6.6 15.2 0 .3 6.8.5 15 .5 9.3 0 15-.4 15-1s-3.2-8.1-7.1-16.7l-7.3-16.1c-.1-.2-.7.5-1.3 1.5zm178.8 1.6a724 724 0 0 1-7 15.7c-3.4 7.4-6.1 13.8-6.1 14.3 0 .4 6.8.7 15 .7h15c-1-3.5-4.3-10.9-7.9-18.8a80.2 80.2 0 0 0-7.4-14.2c-.4 0-1.1 1-1.6 2.3z" class="s0"/>
  </g>
</svg>