<svg version="1.2" xmlns="http://www.w3.org/2000/svg" viewBox="0 0 320 320" width="320" height="320">
	<title>logo</title>
	<style>
		.s0 { fill: #000000 } 
		.s1 { fill: #020101 } 
		.s2 { fill: #080403 } 
		.s3 { fill: #ecd770 } 
		.s4 { fill: #efd768 } 
		.s5 { fill: #ecd87a } 
		.s6 { fill: #f2d760 } 
		.s7 { fill: #5f5109 } 
		.s8 { fill: #332402 } 
		.s9 { fill: #73652a } 
	</style>
	<g id="Background">
		<path id="Path 0" class="s0" d="m0 41v41c4.3 0.1 6.2-0.7 7-1.6 0.8-1 3.1-2.9 5.1-4.3 2-1.4 5.3-5.1 7.4-8.1 2.1-3 6.7-8.5 10.2-12.3 3.4-3.7 6.3-7.2 6.3-7.7 0-0.5 1.5-2.5 3.3-4.3 1.7-1.8 6.4-6.2 10.4-9.7 3.9-3.6 9-7.9 11.3-9.5 2.4-1.6 8-6.6 12.7-11 6.6-6.3 8.3-8.6 8.3-10.8v-2.7h-82z"/>
		<path id="Path 1" class="s1" d="m82 2.8c0 2.1-1.7 4.4-8.3 10.7-4.7 4.4-10.3 9.4-12.7 11-2.3 1.6-7.4 5.9-11.3 9.5-4 3.5-8.7 7.9-10.4 9.7-1.8 1.8-3.3 3.7-3.4 4.3-0.1 0.5-2.9 4-6.3 7.7-3.5 3.8-8 9.3-10.1 12.3-2.1 3-5.4 6.7-7.4 8.1-2 1.4-4.3 3.3-5.1 4.3-0.8 0.9-2.7 1.7-4.3 1.6h-2.7v31.5c5 1.1 6.5 1.4 6.6 1.2 0-0.1 1.3-3.8 2.8-8.2 1.6-4.4 5-12.5 7.8-18 2.7-5.5 7-13.2 9.6-17 2.6-3.8 7.1-9.9 10.1-13.5 3-3.6 8-8.9 11-11.9 3.1-3 7.9-7.3 10.6-9.6 2.8-2.3 8.4-6.5 12.5-9.3 4.1-2.7 12-7.3 17.5-10 5.5-2.8 14.7-6.7 20.5-8.6 5.8-2 11.3-3.6 12.3-3.6 1.1 0 1.5-0.6 1.2-1.5-0.3-0.8-0.5-1.9-0.5-2.5 0-0.6-7.3-1-20-1h-20z"/>
		<path id="Path 2" class="s2" d="m122 1.5c0 0.8 0.6 1.7 1.3 2 0.6 0.2 6.1-0.4 12.2-1.4l11-1.9c-22.5-0.2-24.5 0-24.5 1.3z"/>
		<path id="Path 3" class="s3" d="m148 0.6c-1.9 0.2-7.4 0.9-12.2 1.5-8.6 1.2-8.7 1.2-8.7 4-0.1 1.7 0.4 2.9 1.1 2.9 0.7 0 5.8-0.7 11.3-1.5 5.5-0.8 13.7-1.5 18.2-1.5h8.3v-6c-11.2 0.2-16.1 0.5-18 0.6z"/>
		<path id="Path 4" class="s4" d="m166 3c0 2.8 0.2 3 4 3 3.5 0 4-0.3 4.2-2.4 0.2-2-0.3-2.5-3.2-3-1.9-0.3-3.8-0.6-4.3-0.6-0.4 0-0.7 1.3-0.7 3z"/>
		<path id="Path 5" class="s1" d="m179 1c1.9 0.4 5.2 1 7.3 1.4 2.9 0.5 3.7 0.3 3.7-0.9 0-1.2-1.4-1.5-7.3-1.4-5.9 0.1-6.6 0.2-3.7 0.9z"/>
		<path id="Path 6" class="s2" d="m190 1.5c0 0.8 0.8 1.7 1.8 1.9 0.9 0.2 4.2 0.9 7.2 1.6 3 0.6 5.6 1 5.7 0.8 0.1-0.2 0.4-1.5 0.7-3l0.6-2.8c-14.4 0-16 0.3-16 1.5z"/>
		<path id="Path 7" class="s1" d="m205.5 3.3c-0.3 1.7-0.5 3.2-0.3 3.2 0.2 0.1 4.4 1.6 9.3 3.4 4.9 1.9 12.6 5.2 17 7.4 4.4 2.2 11.2 6 15 8.5 3.8 2.4 10.4 7.3 14.5 10.7 4.1 3.4 10.7 9.6 14.5 13.6 3.9 4.1 9.1 10.1 11.6 13.4 2.5 3.3 6.6 9.2 8.9 13 2.4 3.8 6.2 11 8.5 16 2.4 5 5.3 12.3 6.6 16.3 2.3 7 2.5 7.2 5.6 7.2h3.3v-36c-4.3 0-7.3-1.2-9.5-2.8-2.2-1.6-5.4-4.5-7.2-6.3-1.7-1.9-4-5.4-5.1-7.9-1-2.5-4-7-6.5-10-2.6-3-5.9-6.8-7.4-8.4-1.5-1.5-5.3-4.4-8.3-6.4-3-2-9.1-7.2-13.5-11.5-4.4-4.4-9.2-8.6-10.7-9.3-1.6-0.8-2.8-1.7-2.8-2.1 0.1-0.5-1.5-2.8-3.5-5.3-2-2.6-3.5-5.6-3.5-7.2v-2.8h-35.9z"/>
		<path id="Path 8" class="s0" d="m242 2.8c0 1.6 1.5 4.6 3.5 7.2 2 2.5 3.6 4.8 3.5 5.3 0 0.4 1.2 1.3 2.8 2.1 1.5 0.7 6.3 4.9 10.7 9.3 4.4 4.3 10.5 9.5 13.5 11.5 3 2 6.8 4.9 8.3 6.4 1.5 1.6 4.8 5.4 7.4 8.4 2.5 3 5.5 7.5 6.5 10 1.1 2.5 3.4 6 5.1 7.9 1.8 1.8 5 4.7 7.2 6.3 2.2 1.6 5.2 2.8 6.8 2.8h2.7v-80h-78z"/>
		<path id="Path 9" class="s3" d="m174 3.8c0 2.7 0.1 2.7 10.3 4.4 5.6 0.9 11 2 12.1 2.5 1.6 0.7 1.8 0.4 1.5-2.7l-0.4-3.5c-13.9-2.7-19.2-3.4-20.8-3.5-2.3 0-2.7 0.4-2.7 2.8z"/>
		<path id="Path 10" class="s5" d="m121.5 4.7c-1.1 0.3-6.2 1.8-11.3 3.4-9 2.8-9.2 3-8.6 5.7 0.3 1.5 0.6 2.8 0.7 2.9 0.1 0.1 4-1 8.7-2.6 4.7-1.6 10.2-3.2 12.3-3.5 3.3-0.5 3.7-0.9 3.7-3.6 0-2.2-0.4-3-1.7-2.9-1 0.1-2.7 0.4-3.8 0.6z"/>
		<path id="Path 11" class="s5" d="m198.1 7.9c-0.1 2.3 0.4 3.2 1.9 3.6 1.1 0.3 2.9 0.7 4 1 1.7 0.4 2 0 2-2.5 0-1.7-0.3-3.2-0.7-3.4-0.5-0.2-2.2-0.7-4-1.1-2.9-0.6-3.1-0.5-3.2 2.4z"/>
		<path id="Path 12" class="s0" d="m148.8 6.7c-1.4 0.3-1.9 1.8-2.3 6.8-0.3 3.8-1.3 8-2.5 10-1.1 1.9-2 4.9-2 6.5 0 2.9 0.2 3 5.7 3.6 3.2 0.4 6.4 0.8 7 1 0.8 0.2 1.4-0.6 1.5-1.9 0.2-1.7 1-2.3 3.8-2.5 1.9-0.2 4.1-0.9 4.8-1.5 0.7-0.7 1.2-2.1 1.2-3.2 0-1.1 0.7-2.7 1.6-3.5 1-0.8 2.7-2 3.8-2.5 1.7-0.8 2.2-2.2 2.4-6.5 0.3-5.5 0.3-5.5-3-6.3-1.8-0.4-7.1-0.7-11.8-0.6-4.7 0.1-9.3 0.3-10.2 0.6z"/>
		<path id="Path 13" class="s1" d="m137 7.7c-1.4 0.2-5.9 1.1-10 1.9-4.1 0.9-11.8 3.1-17 4.9-5.2 1.7-13.8 5.4-19 8-5.2 2.6-13.5 7.5-18.5 10.9-4.9 3.3-13.2 10.1-18.4 15.1-5.1 5-12.2 12.6-15.6 17-3.4 4.4-8.2 11.4-10.6 15.5-2.5 4.1-6.3 11.5-8.6 16.5-2.3 5-5.3 13-6.8 18-1.4 5-3.3 12.8-4.3 17.5-1.2 6.4-1.6 13.2-1.6 27.5 0.1 15.7 0.5 20.8 2.4 29.5 1.2 5.8 3.3 13.9 4.7 18 1.3 4.1 5.1 12.9 8.3 19.5 3.2 6.6 8.5 15.8 11.9 20.5 3.3 4.7 8.9 11.6 12.5 15.5l6.5 7 0.1-32.5c-7.3 0-8.4-0.5-10.4-3.3-1.4-1.7-3.1-4.8-3.8-6.7-0.6-1.9-3-5.3-5.1-7.5-2.1-2.2-4.8-6-6-8.3-1.2-2.4-3-5.1-4-6-1.1-1.1-1.8-3.1-1.7-5.4 0-2.6 0.9-5 2.7-7.3 2.3-2.9 3.5-3.6 6.3-3.6 1.9 0.1 3.9 0.5 4.5 1 0.5 0.4 4.7 1.1 9.2 1.5l8.3 0.6c0-17.8 0-18-2.3-17.5-1.2 0.3-6.5 1.7-11.7 3.1-5.2 1.3-9.6 2.3-9.7 2.2-0.1-0.2-0.3-1.4-0.5-2.8-0.3-2.2 0.3-2.6 8.5-5 7.7-2.2 8.7-2.8 8.7-4.8 0-1.2-0.8-2.5-1.8-2.8-0.9-0.3-2.6-1-3.7-1.6-1.1-0.6-4.5-0.8-7.8-0.4-3.1 0.3-6.6 0.2-7.7-0.4-1.1-0.6-2-1.8-2-2.8 0-0.9-1.6-3-3.6-4.7-3.6-2.9-3.7-3.1-3.3-9 0.3-4.2 1.6-8.3 4.1-13.5 2-4.1 4.7-11.3 6.1-16 1.4-4.7 3.3-11.2 4.3-14.5 0.9-3.3 3-8.4 4.5-11.3 1.6-2.8 2.9-5.9 2.9-6.7 0-0.8 1.1-3.9 2.4-6.7 1.7-3.8 5.3-8 12.3-14.8l9.9-9.5c10.8-1.2 15.8-1.5 18.1-1.5h4.3v-17.5c14.3-1.5 27.2-2 37.8-2h19.2c0-4.3 0.9-7.1 2-9 1.3-2.3 2.1-5.8 2.3-10l0.3-6.5c-5.5 0.2-8.2 0.4-9.6 0.7z"/>
		<path id="Path 14" class="s1" d="m173.8 12.7c-0.2 4.7-0.7 5.9-2.4 6.8-1.1 0.5-2.8 1.7-3.8 2.5-0.9 0.8-1.6 2.4-1.6 3.5 0 1.1-0.5 2.5-1.2 3.2-0.7 0.6-2.9 1.3-4.8 1.5-2.8 0.2-3.6 0.8-3.8 2.6-0.2 1.9 0.4 2.3 5 3.2 2.9 0.5 8.2 1.5 11.8 2.2 3.6 0.7 13.2 1.2 21.5 1.1 9.9-0.1 18.3-0.8 24.7-2l9.8-1.8c0 17.8 0.3 20.5 1.2 20.5 0.7 0 3.7-0.9 6.5-2 3.3-1.3 7.7-2 11.8-2 6 0 6.9 0.3 11.5 3.8 2.8 2.1 6.1 5.7 7.4 8.2 1.3 2.5 3.2 5.2 4.1 6 1 0.8 4.1 5.1 7 9.5 2.8 4.4 7 11.6 9.3 16 2.2 4.4 5.2 10.6 6.6 13.8 1.4 3.1 2.6 5.9 2.6 6.2 0 0.3 0.9 1.7 2 3.3 1.1 1.5 2.4 5.2 3 8.2 0.6 3 1.8 6.3 2.8 7.3 1.4 1.5 1.5 2.7 0.9 6-0.5 2.3-1.1 5.8-1.4 7.7-0.4 2.5-2 5-5.9 8.8-5.4 5.2-5.4 5.2-10.7 4.7-2.8-0.3-10.4-0.8-16.7-1-8.6-0.4-11.8-0.3-12.8 0.7-0.7 0.7-1.3 1.7-1.2 2.3 0 0.6 7.9 3 17.6 5.5 9.7 2.5 18.1 4.7 18.6 5 0.5 0.3 0.7 1.5 0.4 2.8-0.3 1.2-1.3 2.2-2.1 2.2-0.8 0-6.9-1.3-13.5-3-6.6-1.7-12.5-3-13-3-0.6 0-1 6.3-1 17 0 15.5 0.2 17 1.7 17 1 0.1 2.6-0.7 3.5-1.7 1-1 1.8-3.4 1.8-5.3 0-1.9 0.5-4.1 1.2-4.8 0.7-0.6 2.1-1.2 3.3-1.2 1.1 0 3.7-0.9 5.7-2 2.1-1.1 4.7-2 5.8-2 1.1 0 3.6 1.6 5.5 3.5 3 3 3.5 4.2 3.5 8 0 2.5-0.7 6.9-1.6 9.8-0.9 2.8-2.5 7-3.5 9.2-1 2.2-2.6 4.8-3.6 5.8-1.5 1.5-2.8 1.7-7.8 1.3-3.3-0.4-8.1-0.8-10.8-1.1l-4.7-0.5c0 33.3 0.1 34 2 34 1.1 0 3.2 0.8 4.7 1.8l2.6 1.7c6.8-7.8 11.2-13.6 14.2-18 2.9-4.4 7.5-12.5 10.3-18 2.7-5.5 6.5-14.9 8.5-21 1.9-6.1 4.2-15.3 5.1-20.5 0.8-5.2 1.8-13.8 2.2-19 0.4-5.4 0.1-14.2-0.5-20.5-0.7-6.1-2-14.8-3.1-19.5-1-4.7-3-12.1-4.5-16.5-1.5-4.4-4.9-12.5-7.6-18-2.7-5.5-7.1-13.4-9.8-17.5-2.8-4.1-7.8-10.8-11.3-14.9-3.5-4.1-10.4-11.1-15.3-15.4-5-4.4-12.4-10.2-16.5-12.9-4.1-2.7-12.5-7.4-18.5-10.3-6.1-2.9-14.6-6.4-19-7.8-4.4-1.4-12.6-3.5-18.3-4.6-5.6-1.2-11.3-2.1-12.7-2.1-2.2 0-2.4 0.4-2.7 5.7z"/>
		<path id="Path 15" class="s3" d="m206 10c0 2.3 0.6 3.2 2.8 4.1 1.5 0.5 3.7 1.2 5 1.5 1.8 0.3 2.2-0.1 2.4-2.5 0.1-2.6-0.4-3.1-4.3-4.5-2.5-0.9-4.8-1.6-5.2-1.6-0.4 0-0.7 1.4-0.7 3z"/>
		<path id="Path 16" class="s5" d="m216 14c0 2.7 0.5 3.2 5.3 5 2.8 1.1 9.3 4.3 14.2 7.1l9 5 4-4.1c-3.1-2.3-9.8-5.9-17-9.5-7.2-3.6-13.6-6.5-14.3-6.5-0.7 0-1.2 1.3-1.2 3z"/>
		<path id="Path 17" class="s3" d="m98.6 14.8c0.4 1.5 0.9 2.9 1.1 3.2 0.2 0.3 0.8 0 1.4-0.5 0.6-0.6 0.8-2 0.5-3.3-0.3-1.2-1.3-2.2-2.1-2.2-1.2 0-1.4 0.7-0.9 2.7z"/>
		<path id="Path 18" class="s5" d="m87 17.9c-9 4.6-9.5 5-9.2 7.7 0.2 1.6 0.4 3 0.5 3.1 0.1 0.1 4.8-2.2 10.5-5 9.1-4.6 10.2-5.5 10-7.6-0.2-1.4-0.8-2.6-1.3-2.8-0.5-0.1-5.3 1.9-10.5 4.6z"/>
		<path id="Path 19" class="s3" d="m73 25.8c-1.4 0.9-4.9 3.4-7.7 5.5-2.9 2-5.3 4.1-5.3 4.5 0 0.4 0.5 1.5 1.2 2.6 1.2 1.7 1.7 1.5 9.1-3.5 6.5-4.5 7.7-5.8 7.5-7.8-0.2-1.4-0.8-2.6-1.3-2.7-0.5-0.2-2.1 0.5-3.5 1.4z"/>
		<path id="Path 20" class="s3" d="m246.4 28.9c-1 0.9-1.7 1.9-1.6 2.2 0.1 0.2 2.3 2 4.9 3.9 2.6 1.9 8.5 6.7 13 10.7 8.2 7.2 8.3 7.3 10 5.3 1.7-1.9 1.7-2.1-0.7-4.6-1.4-1.5-6.4-6-11.3-10-4.8-4.1-9.6-7.8-10.6-8.4-1.4-0.7-2.4-0.5-3.7 0.9z"/>
		<path id="Path 21" class="s6" d="m99.5 33c-2.8 0.5-7.1 0.9-9.8 0.9l-4.7 0.1v88.5c7.4-1.2 14-2.2 19.5-3 5.5-0.8 13.9-1.5 18.8-1.5h8.7c0-5 0.7-7.2 1.5-8 0.8-0.8 1.7-4.2 2.1-7.5 0.6-5.5 0.5-6.1-1.5-6.8-1.1-0.4-2.1-1.5-2.1-2.5 0-0.9 0.8-2.5 1.8-3.5 1.6-1.7 1.6-1.8-1-1.7-2 0-3.3-0.8-4.5-2.7-1.3-2-1.9-5.3-2.1-11.8-0.3-6.4 0.1-10.2 1.2-13 0.8-2.2 3.5-5.9 6-8.3 3.5-3.2 4.6-4.9 4.6-7.2 0-1.6-0.4-3.2-1-3.5-0.6-0.3-1-2.5-1-5v-4.5c-24.4 0.2-33.8 0.6-36.5 1z"/>
		<path id="Path 22" class="s4" d="m136.1 36.4c-0.1 2.5 0.3 4.8 0.9 5.1 0.6 0.3 1 1.9 1 3.5 0 2.4 0.3 2.9 1.8 2.4 0.9-0.3 5.5-1.3 10.2-2.1 6.9-1.2 10.1-1.3 17-0.4 4.7 0.6 10.5 2 13 3.1 2.5 1.1 4.9 1.7 5.3 1.3 0.4-0.5 0.6-2.8 0.5-5.3-0.3-4.4-0.4-4.5-3.8-4.8-1.9-0.1-10.9-1.6-20-3.2-9.1-1.5-18.6-3.1-21.2-3.5l-4.7-0.6z"/>
		<path id="Path 23" class="s4" d="m223.1 36.4c-3.2 0.6-5.6 1.7-5.9 2.6-0.2 0.8 0.4 2.1 1.4 2.8 1.1 0.7 3.8 1.2 6.2 1.2h4.2c0-6.2-0.1-7.9-0.2-7.9-0.2 0.1-2.7 0.6-5.7 1.3z"/>
		<path id="Path 24" class="s5" d="m48.4 45.8c-5.4 5.4-12.6 13.3-15.9 17.6l-6 7.8c3.4 3.3 4.6 4.1 4.8 3.8 0.2-0.3 3.3-4.3 6.9-9 3.6-4.7 10.5-12.4 15.4-17.1 8.5-8.2 8.8-8.7 7.4-10.8-0.8-1.2-1.8-2.2-2.1-2.1-0.3 0-5 4.4-10.5 9.8z"/>
		<path id="Path 25" class="s6" d="m208 39.1c-2.5 0.4-8.5 0.8-13.3 0.8l-8.8 0.1c-0.5 9.6-0.1 11 1.7 13 1.3 1.4 3.2 4.5 4.3 7 1.3 2.8 2.1 6.6 2.1 10.2 0 3.2-0.5 7.9-1.1 10.5-0.7 2.7-1.7 5.4-2.3 6.1-0.6 0.7-2.1 1.3-3.3 1.2-2.2 0-2.2 0.1-0.8 2.5 0.8 1.4 1.3 3.1 1.2 3.7-0.2 0.7-2.5 2-5.1 2.8l-4.7 1.5 0.1 25c5.8 1.1 10.4 1.5 14 1.5 3.6 0 9.4-0.5 13-1 3.6-0.6 10.4-2 15.3-3.2l8.7-2.3v-75.5c-6.2 0-9-0.5-10.2-1-1.2-0.6-2.1-1.7-2-2.5 0.1-1-0.6-1.5-2-1.4-1.3 0.1-4.3 0.5-6.8 1z"/>
		<path id="Path 26" class="s1" d="m148.5 45.4c-3.8 0.7-8.3 2-10 2.8-1.7 0.9-4.6 3.3-6.6 5.4-1.9 2.2-4.1 5.7-4.8 7.9-0.9 2.5-1.2 7.1-1 12.5 0.3 5.9 0.9 9.4 2.1 11.3 1.6 2.3 2.5 2.7 6.8 2.7 4.5 0 5-0.2 5-2.3 0.1-1.2 1.1-3.9 2.3-6 1.2-2.1 3.1-4.1 4.2-4.3 1.1-0.3 2.9-0.4 4-0.2 1.1 0.1 2.7 1.8 3.5 3.5 1.4 3 1.9 3.3 6.3 3.3 3.8 0 4.7-0.3 4.7-1.8-0.1-0.9 0.7-2.5 1.7-3.4 1-1 3-1.8 4.5-1.8 2 0 3.6 1 5.5 3.5 2.7 3.5 3 3.6 9.3 3.6l6.5-0.1c1.2-5 1.5-9 1.5-12q0-5.5-2.4-10.5c-1.3-2.8-3.4-6-4.7-7.2-1.3-1.2-4.4-3.1-6.9-4.2-2.5-1.1-7.7-2.5-11.5-3-3.8-0.6-8.3-1-10-1-1.7 0-6.2 0.6-10 1.3z"/>
		<path id="Path 27" class="s5" d="m272.7 51c-1.6 1.9-1.4 2.4 6.2 11.8 4.3 5.3 10 13.3 12.6 17.7 2.7 4.4 6.3 11.2 8 15 1.7 3.8 4 9.4 5.1 12.3 1.7 4.6 2.2 5.2 4.7 5.2 1.5 0 2.7-0.3 2.7-0.8 0-0.4-0.8-3.2-1.8-6.2-1.1-3-3.6-9.1-5.6-13.5-2.1-4.4-5.9-11.6-8.6-16-2.7-4.4-7.8-11.6-11.3-16-3.6-4.4-7.3-8.8-8.4-9.8-1.9-1.6-2-1.6-3.6 0.3z"/>
		<path id="Path 28" class="s0" d="m67.6 52.7c-4.8 0.4-5.4 0.8-14.9 10.1-6.9 6.8-10.6 11.3-12.3 14.9-1.3 2.9-2.4 6-2.4 6.8 0 0.8-1.3 3.9-2.9 6.7-1.5 2.9-3.6 8-4.5 11.3-1 3.3-2.9 9.8-4.3 14.5-1.4 4.7-4.1 11.9-6.1 16-2.5 5.2-3.8 9.3-4.1 13.5-0.4 5.9-0.3 6.1 3.3 9 2 1.7 3.6 3.8 3.6 4.7 0 1 0.9 2.2 2 2.8 1.1 0.6 4.6 0.7 7.8 0.4 3.2-0.4 6.6-0.2 7.7 0.4 1.1 0.6 2.8 1.3 3.8 1.6 0.9 0.3 1.7 1.5 1.7 2.6 0 1.1 0.6 2 1.3 2 0.6 0 9.3-2.2 19.2-4.9l18-4.8 0.5-108.3c-9.7 0.3-14.7 0.5-17.4 0.7z"/>
		<path id="Path 29" class="s0" d="m235.3 54.3l-6.2 2.2-0.6 67.4c-5.8 5.9-7.8 9.1-8.2 11-0.4 1.8-1.1 3.5-1.6 3.7-0.4 0.2-0.7 2.3-0.7 4.6q-0.1 4.3 1.7 6c1 0.9 3.1 1.8 4.8 2 2.4 0.2 3 0.8 3.2 3 0.3 2.3 1 3 4 3.7 2.1 0.5 8.5 2.2 14.3 3.6l10.5 2.7c3-4.4 3.4-4.5 14.5-3.9 6.3 0.4 13.9 0.9 16.7 1.2 5.3 0.5 5.3 0.5 10.7-4.8 4.3-4.2 5.5-6 6-9.7 0.4-2.5 1-6.1 1.2-8q0.5-3.5-1-5c-0.8-0.8-2-4-2.6-7-0.6-3-1.9-6.7-3-8.3-1.1-1.5-2-2.9-2-3.2 0-0.3-1.2-3.1-2.6-6.3-1.4-3.1-4.4-9.3-6.6-13.7-2.3-4.4-6.5-11.6-9.3-16-2.9-4.4-6-8.7-7-9.5-0.9-0.8-2.8-3.5-4.1-6-1.3-2.5-4.6-6.1-7.4-8.3-4.7-3.5-5.4-3.7-11.8-3.6-4.1 0-9.1 0.9-12.9 2.2z"/>
		<path id="Path 30" class="s3" d="m23.9 75.6c-1.3 1.9-2.2 3.9-2.1 4.5 0.1 0.5 1.1 1.4 2.2 1.9 1.1 0.6 2.2 1 2.5 1 0.3 0 1.4-1.7 2.5-3.7 2-3.6 2-3.9 0.3-5.6-1-1-2.1-1.8-2.5-1.7-0.3 0-1.7 1.6-2.9 3.6z"/>
		<path id="Path 31" class="s4" d="m145.4 75.8c-0.6 0.4-2.1 2.3-3.3 4.2-1.1 1.9-2.1 5.2-2.1 7.3 0 2.8 0.5 4 2.2 4.8 1.3 0.6 3.3 0.8 4.5 0.5 1.3-0.3 3.4-2.1 4.7-3.8 1.3-1.8 2.6-4.6 3-6.3 0.4-2 0.1-3.8-0.9-5.2-0.9-1.5-2.5-2.3-4.3-2.3-1.5 0-3.2 0.4-3.8 0.8z"/>
		<path id="Path 32" class="s4" d="m166.5 76.8c-1 1-1.8 2.9-1.7 4.3 0.1 1.3 1.2 4 2.4 5.9 1.3 1.9 3.5 4.1 4.9 5 2.5 1.4 2.9 1.3 5.4-0.5 2.5-1.8 2.7-2.4 2.2-6-0.4-2.2-1.8-5.5-3.2-7.2-1.8-2.4-3.3-3.3-5.4-3.3-1.5 0-3.6 0.8-4.6 1.8z"/>
		<path id="Path 33" class="s5" d="m17.1 88.6c-2.3 4.6-4 8.6-3.9 8.8 0.2 0.2 1.4 0.7 2.8 1.1 2.3 0.6 2.8 0.1 6-6.6 1.9-4 3.6-7.5 3.8-7.8 0.2-0.4-0.8-1.4-2.2-2.3l-2.5-1.7z"/>
		<path id="Path 34" class="s2" d="m154 84c0 1.1-1.7 3.6-3.7 5.5-2.1 1.9-4.3 3.5-5 3.5-0.7 0-2.2-0.5-3.3-1-1.1-0.5-2-1.7-2-2.5 0-0.9-0.9-1.5-2.3-1.5-1.3 0-3.1 0.8-4.1 1.8-0.9 0.9-1.6 2.6-1.4 3.6 0.2 1.3 2 2.5 5.8 3.8 3 1 6.3 2.8 7.3 4.1 1.2 1.5 1.8 3.9 1.7 7.5v5.2c7.1-0.4 9.3-0.3 9.5 0 0.2 0.3 1.4 0.5 2.7 0.4 1.2 0 2.9-0.3 3.5-0.7 0.7-0.4 2-0.2 2.8 0.3 0.8 0.5 1.7 0.7 1.9 0.3 0.3-0.5 1.6-0.7 3-0.5 2.5 0.2 2.6 0 2.6-5.8q0-6 1.5-7.5c0.8-0.8 4-2.3 7.1-3.3 3.1-0.9 5.8-2.3 6-3 0.2-0.6-0.3-2.3-1.1-3.7-1.4-2.4-1.4-2.5 0.8-2.5 1.3 0 2.8-0.6 3.5-1.3 0.7-0.6 1.2-2 1.2-3 0-1.4-1-1.7-6.3-1.7h-6.2c0 7.7-0.4 8.6-2.7 9.9-2.5 1.5-2.9 1.5-5.5-0.5-1.5-1.1-3.7-3.7-4.8-5.7-1.9-3.5-2.2-3.7-7.3-3.7-4.5 0-5.2 0.3-5.2 2z"/>
		<path id="Path 35" class="s5" d="m157.7 91.7c-0.9 1-1.9 3.4-2.3 5.3l-0.6 3.5c9.4-0.1 9.7-0.3 9.4-2.6-0.2-1.3-0.9-3.5-1.5-4.8-0.7-1.4-1.7-2.6-2.3-2.8-0.6-0.2-1.8 0.4-2.7 1.4z"/>
		<path id="Path 36" class="s4" d="m135.6 102.8c-0.3 3.2-1.2 6.4-2.1 7.2-0.9 0.8-1.6 3-1.5 4.8 0 2.6 0.4 3.2 2.3 3.2 1.2 0 4.6 0.4 7.5 0.8l5.2 0.7c0-12-0.4-16.4-1-17.5-0.6-1.1-2.6-2.7-4.5-3.5-1.9-0.8-3.9-1.5-4.4-1.5-0.5 0-1.1 2.6-1.5 5.8z"/>
		<path id="Path 37" class="s3" d="m8.7 108.8c-2 5.9-4.3 13.9-5.1 17.7-0.8 3.8-1.8 9.7-2.2 13-0.6 5.7-0.5 6 1.7 6.7 1.3 0.4 2.7 0.8 3.2 0.8 0.4 0 0.7-1.6 0.7-3.5 0-1.9 0.9-8.1 2-13.7 1.2-5.7 3.6-14.8 5.5-20.3 2.5-7.3 3.1-10.2 2.2-10.7-0.7-0.4-1.9-0.8-2.8-0.8-1.2 0-2.6 2.9-5.2 10.8z"/>
		<path id="Path 38" class="s4" d="m174.5 100.6c-1.2 1.1-1.6 3.2-1.6 7.5 0.1 5.5 0 5.9-2.1 5.7-1.3-0.1-2.9 0.1-3.5 0.5-0.7 0.4-1.3 2.3-1.3 4.2 0 1.9 0.3 3.7 0.8 3.9 0.4 0.2 3.1 0.6 6 1l5.2 0.6c0-19.5-0.4-25-0.9-25-0.5 0-1.7 0.7-2.6 1.6z"/>
		<path id="Path 39" class="s3" d="m148.5 113.8c-1.4 0.2-1.9 1-1.7 2.8 0.1 1.6 1 2.6 2.5 2.9 1.2 0.2 4.9 0.9 8.2 1.5 3.3 0.5 6.6 1 7.3 1 0.7 0 1.2-1.5 1.2-4 0-2.2-0.4-4.3-0.9-4.6-0.6-0.3-1.6-0.2-2.3 0.2-0.7 0.5-2.3 0.7-3.5 0.6-1.3-0.1-2.4-0.2-2.5-0.3-0.2 0-1.6-0.1-3.3-0.3-1.7-0.1-3.9-0.1-5 0.2z"/>
		<path id="Path 40" class="s3" d="m307 114c0 0.5 0.6 3 1.3 5.5 1 4 1.5 4.5 4 4.5 1.5 0 2.7-0.5 2.7-1 0-0.5-0.4-3-1-5.5-0.9-4.1-1.3-4.5-4-4.5-1.6 0-3 0.5-3 1z"/>
		<path id="Path 41" class="s2" d="m0.1 129.3c0.1 12.6 0.3 14.3 1.1 10.2 0.5-2.8 1.9-9.2 3-14.4 1.8-8 1.9-9.6 0.7-10.3-0.8-0.4-2.2-0.8-3.1-0.8-1.6 0-1.8 1.3-1.7 15.2z"/>
		<path id="Path 42" class="s2" d="m314 116.8c0 0.4 0.9 4.9 2 10 1.1 5 2.4 12.2 2.9 16 0.7 5.8 0.9 4.4 1-10l0.1-16.8c-4.6 0-6 0.3-6 0.8z"/>
		<path id="Path 43" class="s0" d="m110.8 118.7c-0.9 0.2-1.9 1.8-2.2 3.6-0.4 1.8-0.6 5.7-0.6 8.7-0.1 4 0.4 6 1.7 7.2 1.4 1.3 3.6 1.8 8.8 1.8 4.4 0 7.6-0.5 8.3-1.3 0.7-0.6 1.2-2.5 1.2-4.2 0-1.8 0.8-3.8 2-5 1.5-1.5 2.1-3.2 2-6.8v-4.7c-15.1 0.2-20.2 0.4-21.2 0.7z"/>
		<path id="Path 44" class="s1" d="m132.2 122.6c-0.1 3.6-0.7 5.5-2.2 6.9-1.2 1.2-2 3.2-2 5 0 1.7-0.5 3.6-1.2 4.3-0.7 0.7-4 1.2-8.3 1.2-5.9 0.1-7.3-0.3-9-2.1-1.8-1.9-1.9-2.9-1.2-10.5l0.7-8.4c-8.1 0.9-12.1 1.5-14 1.9l-3.5 0.7c-0.4 29.8-0.1 36.4 0.5 36.4 0.6 0 15.5-3.9 33.3-8.6 17.7-4.8 35.1-9.4 38.7-10.4l6.5-1.7c-0.4-10.7-0.6-13.9-0.8-14-0.1-0.2-5.1-1.1-11.2-2.2-6-1-14.4-2.2-18.6-2.6l-7.6-0.7z"/>
		<path id="Path 45" class="s1" d="m221 120.6c-2.5 0.8-8.6 2.1-13.5 2.9-4.9 0.8-11.8 1.5-15.3 1.5h-6.2c0 7.3 0.3 8 2 8 1.2 0 2.2 0.9 2.6 2.3 0.4 1.3 0.1 2.5-0.8 2.9-0.7 0.4-1.9 0.8-2.5 0.8-0.8 0-1.3 1.4-1.3 3.8v3.7c30.6 7.6 40.1 10.1 40.9 10.4 1 0.5 1.3-0.1 1-2.4-0.3-2.5-0.9-3.1-3.4-3.3-1.7-0.2-3.8-1.1-4.8-2q-1.8-1.7-1.7-5.9c0-2.4 0.3-4.5 0.8-4.7 0.4-0.2 1-1.9 1.4-3.7 0.4-1.9 2.4-5 4.3-6.9q3.5-3.5 3.5-6.2c0-1.6-0.5-2.8-1.2-2.7-0.7 0.1-3.3 0.7-5.8 1.5z"/>
		<path id="Path 46" class="s3" d="m85 129v7h6v-14h-6z"/>
		<path id="Path 47" class="s2" d="m170.7 129.6c0.3 3.8 0.6 7 0.7 7.1 0 0.1 3.3-0.6 7.1-1.6l7-1.7 0.6-7.9c-9-1.3-12.6-1.9-13.8-2.2-2.1-0.5-2.2-0.4-1.6 6.3z"/>
		<path id="Path 48" class="s5" d="m310 125.3c0 0.6 0.4 2.9 0.8 5 0.6 3.3 1 3.7 3.7 3.7 2.9 0 3 0 2.3-3.7-0.4-2.1-0.8-4.4-0.8-5 0-0.8-1.3-1.3-3-1.3-1.7 0-3 0.5-3 1.3z"/>
		<path id="Path 49" class="s5" d="m183.3 133.6c-1.8 0.3-2.3 1.1-2.3 3.4 0 1.7 0.5 3 1.2 3 0.7 0 3-0.5 5-1 2.1-0.6 3.8-1.4 3.8-2 0-0.6-0.2-1.7-0.5-2.5-0.3-0.8-1.5-1.4-2.8-1.4-1.2 0.1-3.2 0.3-4.5 0.5z"/>
		<path id="Path 50" class="s3" d="m312.7 142.3c0.4 4.5 0.8 13.5 0.8 19.9v11.8h5.5c0-19-0.2-28-0.4-32.3l-0.4-7.7h-6.4z"/>
		<path id="Path 51" class="s4" d="m175.3 135.6c-1.7 0.3-2.3 1.1-2.3 2.9 0 1.4 0.4 2.7 1 3 0.5 0.3 2.3 0.3 4 0 2.6-0.4 3-0.9 3-3.5 0-2.2-0.4-3-1.8-2.9-0.9 0.1-2.7 0.3-4 0.5z"/>
		<path id="Path 52" class="s5" d="m85 140c0 3.8 0.2 4 3 4 2.8 0 3-0.2 3-4 0-3.8-0.2-4-3-4-2.8 0-3 0.2-3 4z"/>
		<path id="Path 53" class="s6" d="m158.5 140.4c-6.6 1.8-24.3 6.6-39.4 10.7-19.7 5.3-27.6 7-27.8 6.1-0.2-0.6-1.6-1.2-3.3-1.2-2.3 0-3.1 0.5-3.3 2.1-0.2 1.9-2.2 2.7-16.2 6.5-8.8 2.5-16 4.5-16 4.7-0.1 0.1 0 9.8 0.2 21.4l0.3 21.3c7-0.1 9.1 0.5 10.2 1.7 1 1 1.8 2.4 1.8 3 0 0.7 3 5.8 6.7 11.3 5 7.4 7.2 9.9 8.3 9.4 0.8-0.3 3.1-0.8 5-1.2 2.2-0.3 4.9 0.1 7.2 1.1 2.1 1 4 1.7 4.3 1.7 0.3 0 3.3-4.5 6.7-10 3.5-5.5 6.6-10 7-10 0.5 0 0.8 3.4 0.8 7.5v7.5c5.1 0 7-0.5 7.5-1.1 0.6-0.6 3.5-0.9 7-0.7l6 0.4c4.7-10.5 6.2-13.6 6.5-13.6 0.3 0 2.9 5.3 5.9 11.7 3 6.5 5.6 11.9 5.8 12 0.2 0.2 1.8-0.4 3.5-1.2 1.8-0.9 4-1.5 4.8-1.5 0.8 0 2.5-1 3.6-2.2 1.4-1.5 2.4-4.2 2.7-7.3 0.4-3.9 1.2-5.6 3.6-7.8 1.7-1.5 4.9-3.1 7.1-3.7 2.8-0.7 5.3-0.7 8.2 0.1 2.4 0.6 5.5 2.4 7 4 2.2 2.3 3.7 2.9 6.8 2.9 3.9 0 4-0.1 4-3.5 0-3.3 0.2-3.5 3.5-3.5h3.5v15c13.2 0 17.6 0.2 18.3 0.5 0.8 0.4 2.5-2.4 5-7.7 2.2-5 4.1-7.9 4.6-7.3 0.4 0.6 3.7 7.2 7.2 14.7 6.1 13.1 6.5 13.8 8.9 13.2 1.4-0.4 3.2-1.3 4-2 0.8-0.7 3-1.4 4.7-1.4h3.3c0.1-67.2-0.1-71.7-1.5-73-0.9-0.8-1.6-2.4-1.5-3.5 0-1.8-4.1-3.1-43.2-13l-43.3-11c-0.8-5.3-1.6-6.5-2.5-6.4-0.8 0-6.9 1.5-13.5 3.3z"/>
		<path id="Path 54" class="s4" d="m138.2 193.8l0.3 3.7c14.8 0.5 15.5 0.7 15.5 2.5 0 1.1 0.5 2 1 2 0.6 0 1.9-1.8 3-4 1.1-2.2 2-4.5 2-5 0-0.6-1.3-1-3-1-1.6 0-3.2-0.5-3.5-1-0.3-0.6-3.9-1-8.1-1h-7.5z"/>
		<path id="Path 55" class="s2" d="m168.2 176.3c-2.3 4.8-6 12.5-8.2 17.2-2.2 4.7-4 8.7-4 9 0 0.3 1.2 0.5 2.8 0.5 1.9 0 3.1-0.7 4-2.5 1.1-2.4 1.6-2.5 9.7-2.5 8.1 0 8.6 0.1 9.8 2.5 0.7 1.6 2 2.5 3.5 2.5 1.2 0 2.2-0.6 2.2-1.3 0-0.6-3.2-8.2-7.2-16.7-3.9-8.5-7.4-15.9-7.7-16.4-0.4-0.5-2.6 3-4.9 7.7z"/>
		<path id="Path 56" class="s4" d="m169.5 185.3c-1.4 2.8-2.5 5.8-2.5 6.4 0 0.9 1.8 1.3 5.5 1.3 3 0 5.5-0.3 5.5-0.8 0-0.4-1-3.3-2.3-6.5-1.3-3.1-2.7-5.7-3.1-5.7-0.4 0-1.8 2.4-3.1 5.2z"/>
		<path id="Path 57" class="s2" d="m133 185.5v17.5h21c0-4.9-0.2-5-7.8-5.3l-7.7-0.2-0.5-29.5h-5z"/>
		<path id="Path 58" class="s2" d="m179.4 141c-3.4 1-5.3 2-4.4 2.3 0.8 0.3 3.5 1.1 6 1.7 2.5 0.6 4.6 0.9 4.8 0.8 0.1-0.2 0.1-1.7-0.1-3.4l-0.4-3.1z"/>
		<path id="Path 59" class="s3" d="m85 150v6h6v-12h-6z"/>
		<path id="Path 60" class="s4" d="m0.5 152.3c-0.4 3.4-0.5 8.7-0.3 11.7 0.3 5.2 0.5 5.5 3 5.7l2.8 0.3c0-20.8-0.3-23.1-1.5-23.5-0.8-0.3-1.9-0.5-2.4-0.5-0.5 0-1.2 2.8-1.6 6.2z"/>
		<path id="Path 61" class="s7" d="m319.4 160c0 6.3 0.1 8.8 0.3 5.5 0.2-3.3 0.2-8.5 0-11.5-0.2-3-0.3-0.3-0.3 6z"/>
		<path id="Path 62" class="s4" d="m261 167.8c-0.1 0.9 0.7 2.4 1.7 3.3 1 0.9 3.2 1.9 4.8 2.3 1.6 0.4 3.8 0.9 4.8 1.1 1.4 0.4 1.7-0.1 1.5-2.7-0.3-2.9-0.7-3.3-5.3-4.5-2.8-0.7-5.6-1.3-6.3-1.3-0.6 0-1.2 0.8-1.2 1.7z"/>
		<path id="Path 63" class="s3" d="m46.5 170.2c-3.6 0.9-3.9 1.3-3.7 3.9 0.1 2.2 0.7 2.9 2.2 2.9 1.1 0 3.1-0.6 4.5-1.2 1.8-0.9 2.5-2.1 2.5-4 0-1.6-0.3-2.8-0.8-2.7-0.4 0.1-2.5 0.6-4.7 1.1z"/>
		<path id="Path 64" class="s3" d="m274.1 171.9c-0.1 2.3 0.4 3.2 1.9 3.6 1.1 0.3 2.9 0.7 4 1 1.7 0.4 2 0 2-2.5 0-1.7-0.3-3.2-0.8-3.4-0.4-0.2-2.1-0.7-3.9-1.1-2.9-0.6-3.1-0.5-3.2 2.4z"/>
		<path id="Path 65" class="s5" d="m1 173c0 2.7 0.3 3 3 3 2.2 0 2.9-0.4 2.5-1.5-0.3-0.8-0.5-2.2-0.5-3 0-0.9-0.9-1.5-2.5-1.5-2.1 0-2.5 0.5-2.5 3z"/>
		<path id="Path 66" class="s5" d="m282.1 173.9c-0.1 2.8 0.3 3.2 3.6 4.1 2.1 0.5 4.6 1 5.5 1 1 0 2-0.7 2.3-1.5 0.3-0.8 0.5-1.9 0.6-2.5 0.1-0.5-1.9-1.4-4.2-2-2.4-0.6-5.1-1.3-6.1-1.6-1.2-0.4-1.6 0.2-1.7 2.5z"/>
		<path id="Path 67" class="s5" d="m34 173.9c-4.9 1.5-5.5 2-5.2 4.2 0.2 1.3 0.4 2.5 0.5 2.7 0.1 0.1 3.2-0.4 7-1.3 6.4-1.4 6.7-1.6 6.7-4.5 0-2.2-0.5-3-1.8-2.9-0.9 0.1-4.2 0.9-7.2 1.8z"/>
		<path id="Path 68" class="s8" d="m0 178.8c0 2.8 0.4 5.2 1 5.2 0.6 0 0.8-1.8 0.4-4.8-0.4-2.6-0.9-4.9-1.1-5.2-0.2-0.3-0.3 1.9-0.3 4.7z"/>
		<path id="Path 69" class="s5" d="m312.6 178.8c-0.4 2.6-0.5 4.7-0.4 4.8 0.2 0.1 1.5 0.4 3 0.8 2.7 0.6 2.8 0.5 2.8-3.4 0-2.2 0.2-4.7 0.5-5.5 0.4-1.1-0.3-1.5-2.4-1.5-2.7 0-2.9 0.3-3.5 4.7z"/>
		<path id="Path 70" class="s3" d="m1.5 181.3c0.3 2.8 1.6 9.3 2.7 14.2 1.1 4.9 3.4 12.8 5 17.5 1.7 4.7 5.2 12.9 7.9 18.2 4.2 8.5 5.2 9.8 7.4 9.8 1.4 0 2.7-0.3 3-0.8 0.2-0.4-1.5-4.3-3.7-8.7-2.3-4.4-5.7-11.8-7.5-16.5-1.8-4.7-4.4-13-5.8-18.5-1.3-5.5-2.8-12.4-3.2-15.3-0.8-4.9-1-5.2-3.7-5.2h-2.8z"/>
		<path id="Path 71" class="s2" d="m318.5 180.3c-0.2 0.6-1.1 5.3-2.1 10.2-0.9 4.9-1.8 9.6-2 10.2-0.3 0.9 0.7 1.3 2.6 1.3h3c0-17.8-0.2-23-0.5-23-0.3 0-0.7 0.6-1 1.2z"/>
		<path id="Path 72" class="s2" d="m0 190.5c0 5.8 0.2 6.5 2 6.5 1.1 0 2-0.3 2-0.8 0-0.4-0.4-3.3-0.9-6.5-0.6-3.1-1.5-5.7-2-5.7-0.7 0-1.1 2.6-1.1 6.5z"/>
		<path id="Path 73" class="s3" d="m311.6 186.2c-0.3 1.3-1.1 4.6-1.6 7.3-0.6 2.8-2.2 8.6-3.6 13-2.1 6.5-2.4 8.1-1.3 8.7 0.8 0.4 2 0.8 2.6 0.8 0.7 0 2-1.7 2.9-3.7 0.9-2.1 2.7-8.1 4.1-13.3 1.3-5.2 2.2-10.6 2.1-12-0.2-1.7-1-2.6-2.5-2.8-1.5-0.2-2.3 0.3-2.7 2z"/>
		<path id="Path 74" class="s0" d="m24.4 193.4c-2 2.6-2.7 4.5-2.6 7.3 0.1 2.2 0.9 4.5 1.9 5.5 1 0.9 2.8 3.6 4 6 1.2 2.3 3.9 6.1 6 8.3 2.1 2.2 4.5 5.6 5.1 7.5 0.7 1.9 2.4 5 3.8 6.7 2 2.8 3.1 3.3 6.4 3.3h4v-44.5c-5.8-1.1-9.6-1.5-12.2-1.5-2.7 0-5-0.4-5.3-1-0.3-0.6-2.3-1-4.4-1-3.2 0-4.4 0.6-6.7 3.4z"/>
		<path id="Path 75" class="s0" d="m281 192.1c-1.9 1-4.4 1.9-5.6 1.9-1.1 0-2.5 0.6-3.2 1.3-0.7 0.6-1.2 2.8-1.2 4.7 0 2.1-0.6 4.2-1.7 5.2-1 1-2.6 1.8-3.6 1.8-1.5 0-1.7 1.1-1.7 9.5v9.5c7.4 0.8 12.2 1.2 15.5 1.6 5 0.4 6.3 0.2 7.8-1.3 1-1 2.6-3.6 3.6-5.8 1-2.2 2.6-6.4 3.5-9.2 0.9-2.9 1.6-7.3 1.6-9.8 0-3.8-0.5-5-3.5-8-2-2-4.5-3.5-5.8-3.4-1.2 0-3.8 0.9-5.7 2z"/>
		<path id="Path 76" class="s1" d="m0 219.5v22.5c5.1 0 7.6 1.3 11.1 4.3 2.8 2.3 6.5 5.3 8.2 6.6 1.8 1.3 4.4 4 5.8 6 1.5 2 3.9 4.7 5.4 6.1 1.5 1.4 3.5 4.1 4.5 6 0.9 1.9 3.2 4.6 5 6 1.8 1.4 5.5 4.8 8.2 7.5 2.7 2.8 6.8 6.9 9.1 9.2 2.3 2.3 6.8 5.6 10 7.3 3.1 1.6 5.7 3.4 5.7 4 0 0.6 2 2.5 4.5 4.3 4 2.8 4.5 3.6 4.5 7v3.7h37c0-5.3-0.5-5.7-8.7-8.3-4.9-1.5-13.5-5-19.3-7.8-5.8-2.8-15-8-20.5-11.7-6.7-4.5-14.3-11-23.1-19.7-8.8-8.7-15.1-16.1-19.3-22.5-3.5-5.2-8.6-14-11.3-19.5-2.8-5.5-6.6-14.5-8.4-20-1.8-5.5-3.4-10.8-3.4-11.8 0-1.1-0.8-1.7-2.5-1.7h-2.5z"/>
		<path id="Path 77" class="s1" d="m310 213.8c-2.3 6.4-6.2 15.5-8.7 20.2-2.5 4.7-6.4 11.2-8.6 14.5-2.2 3.3-6.8 9.4-10.3 13.5-3.4 4.1-8.6 9.8-11.6 12.6-2.9 2.8-7.8 7.1-10.8 9.6-3 2.5-9.6 7.2-14.5 10.4-4.9 3.2-12.6 7.5-17 9.5-4.4 2.1-12.2 5.2-17.3 7.1-8.7 3.1-9.3 3.5-9.2 6v2.8h40c-0.1-4.3 0.6-6.2 1.5-7 0.9-0.8 1.6-2.5 1.5-3.8 0-1.2 0.4-3.3 1-4.7 0.6-1.4 1.7-2.5 2.5-2.5 0.8 0 4.3-1.4 7.8-3.1 3.5-1.8 8.6-5.7 11.7-8.8 3-3.1 7.1-6.8 9-8.2 1.9-1.4 4.8-4.6 6.5-7 1.6-2.4 5.2-6.7 8-9.4 2.7-2.8 7.8-8.3 11.3-12.3l6.2-7.2h11v-44c-5.6 0-5.9 0.5-10 11.7z"/>
		<path id="Path 78" class="s4" d="m53 241.3c0.1 23.9-0.1 29-1.2 28-1-1-1.7-0.9-3.3 0.8l-2 2.1 11.6 11.3c3.8-3.9 5.2-6.6 5.6-8.5 0.3-1.9 0.8-4 1.1-4.5 0.3-0.6 0.4-13.1 0.3-28-0.2-23.7-0.4-27.2-1.9-28.8-1.1-1.2-3.1-1.8-5.9-1.7h-4.3z"/>
		<path id="Path 79" class="s5" d="m300 222.7c-1.9 4.3-4.9 10.4-6.7 13.6-1.8 3.1-3.2 5.9-3 6.1 0.1 0.2 1.4 0.7 3 1 2.5 0.6 3 0.1 7.1-7.6 2.5-4.6 5.4-10.7 6.4-13.7 1.1-2.9 1.9-5.5 1.9-5.6-0.1-0.2-1.3-0.6-2.7-0.9-2.3-0.6-2.8 0-6 7.1z"/>
		<path id="Path 80" class="s2" d="m173.5 219.5c-2.2 0.8-5 2.5-6.3 3.7-1.5 1.5-2.5 4-2.9 6.8-0.4 3.8-0.2 5 1.9 7.5 1.4 1.7 5.6 4.5 9.4 6.4 3.8 1.8 7.9 4.3 9.2 5.5 1.2 1.1 2.2 3.1 2.2 4.3 0 1.3-1 3-2.3 3.8-1.2 0.8-4.1 1.5-6.5 1.5-2.3 0-5.5-0.7-7.2-1.5-1.7-0.8-3-1.9-3-2.5 0-0.6-0.3-1-0.8-1-0.4 0-1.8 0.8-3.1 1.8-2 1.4-2.2 2-1.2 4 0.6 1.2 2.6 3.1 4.3 4.1 1.8 1.1 5.1 2.3 7.3 2.6 2.2 0.4 6 0.2 8.5-0.5 2.7-0.8 5.8-2.6 7.8-4.6 2.7-2.9 3.2-4.1 3.2-8.2-0.1-4.2-0.5-5.1-4.3-8.7-2.6-2.4-6.8-4.9-10.5-6.3-3.6-1.3-6.6-3-7.2-4.2-0.6-1.1-0.8-2.9-0.5-4 0.3-1.1 2-2.6 3.8-3.4 1.7-0.8 4.3-1.2 5.7-0.9 1.4 0.3 3.4 1.4 4.5 2.5 1.9 1.8 2.1 1.8 4.4 0.1 2-1.5 2.2-2.1 1.2-4.1-0.6-1.2-2.3-2.8-3.8-3.6-1.6-0.8-4.4-1.7-6.3-2-2.1-0.3-5.1 0-7.5 0.9z"/>
		<path id="Path 81" class="s2" d="m65 242.3v23.7h7l0.5-25.5c11.2 18.2 14.8 23.5 15.3 23.5 0.4 0 3.9-5.2 7.7-11.5 3.8-6.3 7.2-11.5 7.5-11.5 0.3 0 0.5 5.5 0.5 12.3v12.2l7.5 0.5c0-36.4-0.3-47-0.8-47-0.4 0-5.6 7.6-11.5 16.8l-10.8 16.7c-16.4-24.8-21.5-32.5-22-33-0.6-0.6-0.9 8.7-0.9 22.7z"/>
		<path id="Path 82" class="s2" d="m129 237.6c-4.7 10.2-9.5 20.7-10.8 23.4l-2.2 5c7.1 0 7.7-0.4 9.3-3.5l1.7-3.5h23c1.9 6.8 2.3 7 6 7 2.7 0 3.9-0.4 3.6-1.2-0.2-0.7-5-11.3-10.7-23.6-5.7-12.2-10.6-22.2-10.9-22.2-0.3 0-4.3 8.4-9 18.6z"/>
		<path id="Path 83" class="s4" d="m134 243.1c-1.9 4.5-3.6 8.6-3.8 9-0.1 0.5 3.4 0.9 7.8 0.9 4.4 0 8-0.3 8-0.7 0-0.5-1.7-4.5-3.7-9.1-2.1-4.5-4-8.2-4.3-8.2-0.3 0-2.1 3.7-4 8.1z"/>
		<path id="Path 84" class="s2" d="m234.3 220.6c-0.6 1.1-5.3 11.4-10.5 23-5.2 11.6-9.5 21.4-9.6 21.7-0.1 0.4 1.4 0.7 3.3 0.7 3 0 3.7-0.5 5.2-3.5l1.8-3.5h22c3.3 6.5 4 7 7 7 1.9 0 3.5-0.3 3.5-0.7 0-0.5-4.5-10.7-10.1-22.8-5.6-12.1-10.5-22.4-10.8-22.9-0.4-0.4-1.2 0-1.8 1z"/>
		<path id="Path 85" class="s4" d="m231.6 242.5c-2.1 4.3-3.7 8.4-3.7 9.1 0.1 1.1 2 1.4 7.6 1.4 5.3 0 7.5-0.4 7.5-1.2 0-0.7-1.5-4.5-3.3-8.4-1.7-4-3.5-7.5-3.8-7.9-0.3-0.4-2.2 2.8-4.3 7z"/>
		<path id="Path 86" class="s2" d="m201 243v23h7v-46h-7z"/>
		<path id="Path 87" class="s4" d="m175.3 226.6c-1.8 0.8-3.5 2.3-3.8 3.4-0.3 1.1-0.1 2.9 0.5 4 0.6 1.2 3.6 2.9 7.2 4.3 3.7 1.3 7.9 3.8 10.4 6.2 3.5 3.3 4.9 4 7.8 3.8l3.6-0.3v-22c-6.4 0-9.1 0.8-10.8 2-2.6 2-2.7 2-4.7 0.2-1.1-1.1-3.1-2.2-4.5-2.5-1.4-0.3-4 0.1-5.8 0.9z"/>
		<path id="Path 88" class="s4" d="m118.5 233c-0.3 0.6-2.1 1-4 1h-3.5v32c4.9-0.5 6-2.3 12.5-16.4 4.1-8.7 7.2-16.2 6.9-16.7-0.2-0.5-2.9-0.9-5.9-0.9-2.9 0-5.6 0.4-6 1z"/>
		<path id="Path 89" class="s4" d="m208 250v16c-6.7 0-7-0.2-7-3 0-2.9-0.2-3-4.3-3-2.7-0.1-4.8 0.5-5.9 1.7-1.4 1.4-1.5 2.1-0.5 3.1 0.6 0.7 2.3 1.2 3.7 1.2 1.4 0 3.4 0.6 4.5 1.5 1.1 0.8 3.3 1.4 5 1.5 1.7 0 4.6-0.8 6.6-1.8 3.2-1.5 4.2-3.1 10.2-16.4 3.7-8.2 6.5-15.2 6.2-15.8-0.3-0.6-4.5-1-9.5-1h-9z"/>
		<path id="Path 90" class="s4" d="m161.8 237.6c-1.3 1.3-3 2.4-3.8 2.4-0.8 0-3 0.6-4.8 1.5-1.7 0.8-3.1 1.9-3 2.3 0.2 0.5 2.5 5.7 5.3 11.6 3.6 7.6 5.5 10.6 6.7 10.6 1 0 2-0.7 2.3-1.5 0.3-0.8-0.3-2.7-1.3-4.1-1.7-2.6-1.6-2.7 0.8-4.5 1.4-1 2.8-1.9 3.2-1.9 0.5 0 0.8 0.4 0.8 1 0 0.6 1.3 1.7 3 2.5 1.6 0.8 4.9 1.5 7.2 1.5 2.4 0 5.3-0.7 6.5-1.5 1.3-0.8 2.3-2.5 2.3-3.7 0-1.3-1-3.3-2.2-4.4-1.3-1.2-5.4-3.7-9.2-5.5-3.8-1.9-7.9-4.6-9.2-6.1l-2.3-2.7z"/>
		<path id="Path 91" class="s4" d="m81.1 237c-1.4 0.5-2.4 1.2-2.3 1.5 0.1 0.3 2.2 3.5 4.6 7.3l4.4 6.7c6.4-9.7 8.2-12.7 8.2-13 0-0.3-1.5-1.2-3.2-2-1.8-0.9-4.6-1.5-6.3-1.5-1.6 0.1-4.1 0.5-5.4 1z"/>
		<path id="Path 92" class="s5" d="m25.3 240.6c-1.7 0.3-2.1 0.9-1.7 2.2 0.3 0.9 2.9 5 5.7 9.1 2.9 4.1 7.9 10.3 11.2 13.8 6 6.4 6 6.4 8 4.5 2-2 2-2-4.8-9.8-3.8-4.4-8.5-10.7-10.6-14.1-2.1-3.5-4.2-6.2-4.7-6.2-0.5 0.1-1.9 0.3-3.2 0.5z"/>
		<path id="Path 93" class="s4" d="m72 252.5v11.5c10.1 0 13.2-0.4 13.5-1 0.3-0.6-2.3-5.7-5.8-11.5-3.4-5.8-6.6-10.5-7-10.5-0.4 0-0.7 5.2-0.7 11.5z"/>
		<path id="Path 94" class="s0" d="m0 281v39h82c0-7.1-0.5-7.9-4.5-10.8-2.5-1.7-4.5-3.6-4.5-4.2 0-0.6-2.6-2.4-5.8-4-3.1-1.7-7.6-5-9.9-7.3-2.3-2.3-6.4-6.4-9.1-9.2-2.7-2.8-6.4-6.1-8.2-7.5-1.8-1.4-4.1-4.1-5-6-1-1.9-3-4.6-4.5-6-1.5-1.4-3.9-4.1-5.4-6.1-1.4-2-4-4.7-5.8-6-1.7-1.3-5.4-4.3-8.2-6.7-3.5-2.9-6-4.2-8.1-4.2h-3z"/>
		<path id="Path 95" class="s3" d="m286 247.8c-1.7 2.6-3 4.7-2.8 4.7 0.2 0 1.2 0.8 2.3 1.8 1.9 1.7 2.1 1.6 5.8-4 3-4.5 3.6-6 2.5-6.5-0.7-0.4-2.1-0.8-3-0.8-0.9 0-3.1 2.1-4.8 4.7z"/>
		<path id="Path 96" class="s4" d="m96.4 251.3c-2.5 3.9-4.2 7.5-3.7 7.8 0.4 0.4 2.9 0.9 5.5 1.3l4.8 0.6c0-13.5-0.4-17-1-17-0.6 0-3.1 3.3-5.6 7.2z"/>
		<path id="Path 97" class="s4" d="m255.9 245.5c-0.8 0.9-2.3 1.6-3.3 1.5-1.1 0-2.1 0.4-2.3 1-0.2 0.6 1.3 4.4 3.2 8.5 1.9 4.1 3.5 7.9 3.5 8.5 0 0.6-1.6 1-3.5 1-3.2 0-3.5 0.3-3.5 2.8 0 1.5 0.9 3.8 2 5.2 1.1 1.4 2 3.2 2 4 0 0.8 1.1 2.9 2.4 4.5l2.4 3c11-9.8 11.2-10.1 9.5-11.8-1-1-2.4-1.8-3.1-1.7-0.9 0-1.2-3.4-1.2-14v-14c-5.3 0-7.4 0.7-8.1 1.5z"/>
		<path id="Path 98" class="s0" d="m302.8 253.2c-3.5 4-8.6 9.5-11.3 12.3-2.8 2.7-6.4 7-8 9.4-1.7 2.4-4.6 5.6-6.5 7-1.9 1.4-6 5.1-9 8.2-3.1 3.1-8.2 7-11.8 8.8-3.4 1.7-6.9 3.1-7.7 3.1-0.8 0-1.9 1.1-2.5 2.5-0.6 1.4-1 3.5-1 4.8 0.1 1.2-0.6 2.9-1.5 3.7-0.9 0.8-1.6 2.7-1.5 4.3v2.7h78v-74h-10.9z"/>
		<path id="Path 99" class="s3" d="m194.6 249.3c-0.3 0.6-0.7 3.3-1 5.9l-0.6 4.8h8v-12c-4.7 0-6.2 0.6-6.4 1.2z"/>
		<path id="Path 100" class="s5" d="m279.3 256.5c-2.8 3.5-2.8 3.5-0.8 5.5 1.6 1.6 2.3 1.8 3.4 0.7 0.7-0.6 2.2-2.4 3.2-4 1.6-2.2 1.7-3 0.6-4.2-0.6-0.9-1.7-1.6-2.4-1.5-0.7 0-2.5 1.6-4 3.5z"/>
		<path id="Path 101" class="s6" d="m90.1 261.3c-1 2-2.1 2.2-9.2 2.5-4.5 0.2-8.3 0.7-8.5 1.3-0.2 0.5-1.7 0.9-3.4 0.9-2.3 0-3 0.4-3 2 0 1.1-0.3 2.2-0.7 2.4-0.5 0.2-1.1 2.1-1.6 4.2-0.4 2.2-1.7 4.9-3 6.1-2 2-2 2.4-0.7 3.9 0.8 0.9 5.8 4.4 11 7.9 5.2 3.5 14.2 8.6 20 11.4 5.8 2.7 14.1 6.2 18.5 7.6 4.4 1.4 12.3 3.6 17.5 4.8 8.3 1.8 12.5 2.1 33 2.1 21.8 0 24.3-0.2 34.5-2.6 6.1-1.4 15.5-4.3 21-6.3 5.5-2.1 12.9-5.2 16.5-7 3.6-1.8 10.7-6 15.8-9.4 5-3.4 9.5-6.7 9.8-7.4 0.4-0.6-0.3-2.4-1.5-4-1.1-1.5-2.1-3.3-2.1-4 0-0.6-0.9-2.3-2-3.7-1.1-1.4-2-3.7-2-5.3 0-1.5-0.8-4.3-1.7-6.2l-1.8-3.5h-22c-3.4 6.8-3.8 7-8.2 7-2.7 0-5.7 0.6-6.8 1.5-1.1 0.8-3.6 1.4-5.5 1.4-1.9 0-4.4-0.6-5.5-1.4-1.1-0.9-3.1-1.5-4.5-1.5-1.4 0-2.9-0.4-3.5-1-0.7-0.8-2.6-0.6-6.5 0.6-3.7 1.1-6.8 1.5-9.5 1-2.2-0.4-5.1-1.4-6.5-2.3-2.3-1.4-2.6-1.4-3.2 0.1-0.6 1.2-2.2 1.6-6.8 1.6h-6l-2-7h-23l-3.5 7.1c-19.5-0.6-20-0.7-20.2-2.9-0.2-1.7-1.1-2.3-4-2.8-2.1-0.3-4.8-0.7-5.9-0.9-1.5-0.3-2.5 0.2-3.3 1.8z"/>
		<path id="Path 102" class="s2" d="m264 266c0 3.3 0.3 6 0.8 6 0.4 0 2.5-1.8 4.7-4l4-4.1c-3.9-3-6-3.9-7.3-3.9-2 0-2.2 0.4-2.2 6z"/>
		<path id="Path 103" class="s3" d="m271.2 266c-5.2 5.9-5.2 6-3.2 7.8 2 1.6 2.2 1.6 7-3.3 2.8-2.8 5-5.4 5-6 0.1-0.6-0.8-1.8-1.8-2.7-1.8-1.7-2.1-1.5-7 4.2z"/>
		<path id="Path 104" class="s2" d="m194.5 315.7c-3.3 0.8-9.8 2-14.5 2.8l-8.5 1.3 30.5 0.2c0-4.6-0.3-6-0.8-5.9-0.4 0.1-3.4 0.8-6.7 1.6z"/>
		<path id="Path 105" class="s2" d="m119 317.5v2.5l29.5-0.2c-13.9-2.1-19.9-3.2-22.3-3.8-2.3-0.5-4.9-1-5.7-1-0.9 0-1.5 0.9-1.5 2.5z"/>
		<path id="Path 106" class="s9" d="m155 319.7c3 0.2 7.5 0.2 10 0 2.5-0.2 0-0.3-5.5-0.3-5.5 0-7.5 0.1-4.5 0.3z"/>
	</g>
</svg>